<?xml version="1.0" encoding="UTF-8" standalone="no"?>
<!DOCTYPE svg PUBLIC "-//W3C//DTD SVG 1.1//EN"
 "http://www.w3.org/Graphics/SVG/1.1/DTD/svg11.dtd">
<!-- Generated by graphviz version 2.43.0 (0)
 -->
<!-- Title: pcomp_sm Pages: 1 -->
<svg width="693pt" height="445pt"
 viewBox="0.00 0.00 693.24 445.22" xmlns="http://www.w3.org/2000/svg" xmlns:xlink="http://www.w3.org/1999/xlink">
<g id="graph0" class="graph" transform="scale(1 1) rotate(0) translate(4 441.22)">
<title>pcomp_sm</title>
<polygon fill="white" stroke="transparent" points="-4,4 -4,-441.22 689.24,-441.22 689.24,4 -4,4"/>
<!-- WAIT_ENABLE -->
<g id="node1" class="node">
<title>WAIT_ENABLE</title>
<ellipse fill="none" stroke="black" cx="220.24" cy="-410.35" rx="86.95" ry="26.74"/>
<text text-anchor="middle" x="220.24" y="-414.15" font-family="Times,serif" font-size="14.00">State 0</text>
<text text-anchor="middle" x="220.24" y="-399.15" font-family="Times,serif" font-size="14.00">WAIT_ENABLE</text>
</g>
<!-- WAIT_DIR -->
<g id="node2" class="node">
<title>WAIT_DIR</title>
<ellipse fill="none" stroke="black" cx="228.24" cy="-277.48" rx="62.45" ry="26.74"/>
<text text-anchor="middle" x="228.24" y="-281.28" font-family="Times,serif" font-size="14.00">State 1</text>
<text text-anchor="middle" x="228.24" y="-266.28" font-family="Times,serif" font-size="14.00">WAIT_DIR</text>
</g>
<!-- WAIT_ENABLE&#45;&gt;WAIT_DIR -->
<g id="edge1" class="edge">
<title>WAIT_ENABLE&#45;&gt;WAIT_DIR</title>
<path fill="none" stroke="black" d="M219.58,-383.38C219.38,-366.32 219.57,-343.54 221.24,-323.48 221.48,-320.6 221.79,-317.62 222.15,-314.64"/>
<polygon fill="black" stroke="black" points="225.64,-314.96 223.53,-304.58 218.71,-314.01 225.64,-314.96"/>
<text text-anchor="middle" x="279.74" y="-348.08" font-family="Times,serif" font-size="13.00">rising ENABLE</text>
<text text-anchor="middle" x="279.74" y="-334.08" font-family="Times,serif" font-size="13.00"> &amp; DIR=EITHER </text>
</g>
<!-- WAIT_PRE_START -->
<g id="node3" class="node">
<title>WAIT_PRE_START</title>
<ellipse fill="none" stroke="black" cx="103.24" cy="-144.61" rx="103.48" ry="26.74"/>
<text text-anchor="middle" x="103.24" y="-148.41" font-family="Times,serif" font-size="14.00">State 2</text>
<text text-anchor="middle" x="103.24" y="-133.41" font-family="Times,serif" font-size="14.00">WAIT_PRE_START</text>
</g>
<!-- WAIT_ENABLE&#45;&gt;WAIT_PRE_START -->
<g id="edge2" class="edge">
<title>WAIT_ENABLE&#45;&gt;WAIT_PRE_START</title>
<path fill="none" stroke="black" d="M158.86,-391.14C144.33,-384.73 129.73,-376.33 118.24,-365.48 96.56,-345.01 95.09,-334.5 88.24,-305.48 78.35,-263.62 85.83,-214.14 93.34,-181.43"/>
<polygon fill="black" stroke="black" points="96.81,-181.98 95.75,-171.44 90,-180.34 96.81,-181.98"/>
<text text-anchor="middle" x="122.74" y="-281.08" font-family="Times,serif" font-size="13.00"> rising</text>
<text text-anchor="middle" x="122.74" y="-267.08" font-family="Times,serif" font-size="13.00"> ENABLE </text>
</g>
<!-- WAIT_FALLING -->
<g id="node5" class="node">
<title>WAIT_FALLING</title>
<ellipse fill="none" stroke="black" cx="352.24" cy="-144.61" rx="88.28" ry="26.74"/>
<text text-anchor="middle" x="352.24" y="-148.41" font-family="Times,serif" font-size="14.00">State 4</text>
<text text-anchor="middle" x="352.24" y="-133.41" font-family="Times,serif" font-size="14.00">WAIT_FALLING</text>
</g>
<!-- WAIT_ENABLE&#45;&gt;WAIT_FALLING -->
<g id="edge3" class="edge">
<title>WAIT_ENABLE&#45;&gt;WAIT_FALLING</title>
<path fill="none" stroke="black" d="M294.55,-396.15C311.4,-389.65 327.48,-379.95 338.24,-365.48 359.15,-337.35 357.29,-236.8 354.55,-181.94"/>
<polygon fill="black" stroke="black" points="358.03,-181.42 354,-171.62 351.04,-181.79 358.03,-181.42"/>
<text text-anchor="middle" x="399.24" y="-295.08" font-family="Times,serif" font-size="13.00">rising</text>
<text text-anchor="middle" x="399.24" y="-281.08" font-family="Times,serif" font-size="13.00">ENABLE</text>
<text text-anchor="middle" x="399.24" y="-267.08" font-family="Times,serif" font-size="13.00">&amp; RELATIVE</text>
<text text-anchor="middle" x="399.24" y="-253.08" font-family="Times,serif" font-size="13.00">&amp; START=0</text>
</g>
<!-- WAIT_DIR&#45;&gt;WAIT_ENABLE -->
<g id="edge4" class="edge">
<title>WAIT_DIR&#45;&gt;WAIT_ENABLE</title>
<path fill="none" stroke="black" d="M180.59,-294.76C158.76,-303.28 136.38,-313.91 130.24,-323.48 120.16,-339.19 120.34,-349.65 130.24,-365.48 135.37,-373.69 142.52,-380.4 150.57,-385.87"/>
<polygon fill="black" stroke="black" points="148.89,-388.94 159.25,-391.15 152.52,-382.96 148.89,-388.94"/>
<text text-anchor="middle" x="172.74" y="-355.08" font-family="Times,serif" font-size="13.00"> Can&#39;t guess</text>
<text text-anchor="middle" x="172.74" y="-341.08" font-family="Times,serif" font-size="13.00"> DIR </text>
<text text-anchor="middle" x="172.74" y="-327.08" font-family="Times,serif" font-size="13.00"> or Disabled </text>
</g>
<!-- WAIT_DIR&#45;&gt;WAIT_PRE_START -->
<g id="edge5" class="edge">
<title>WAIT_DIR&#45;&gt;WAIT_PRE_START</title>
<path fill="none" stroke="black" d="M179.93,-260.52C164.69,-253.56 148.82,-244.06 137.24,-231.48 124.46,-217.61 116.25,-198.36 111.11,-181.61"/>
<polygon fill="black" stroke="black" points="114.36,-180.25 108.28,-171.57 107.62,-182.14 114.36,-180.25"/>
<text text-anchor="middle" x="176.24" y="-214.08" font-family="Times,serif" font-size="13.00"> DIR</text>
<text text-anchor="middle" x="176.24" y="-200.08" font-family="Times,serif" font-size="13.00"> calculated </text>
</g>
<!-- WAIT_DIR&#45;&gt;WAIT_FALLING -->
<g id="edge6" class="edge">
<title>WAIT_DIR&#45;&gt;WAIT_FALLING</title>
<path fill="none" stroke="black" d="M221.61,-250.44C218.45,-231.75 217.7,-206.89 230.24,-189.48 239.2,-177.05 252.02,-168.12 266.02,-161.72"/>
<polygon fill="black" stroke="black" points="267.45,-164.92 275.36,-157.87 264.78,-158.45 267.45,-164.92"/>
<text text-anchor="middle" x="284.24" y="-221.08" font-family="Times,serif" font-size="13.00"> DIR calculated </text>
<text text-anchor="middle" x="284.24" y="-207.08" font-family="Times,serif" font-size="13.00"> &amp; </text>
<text text-anchor="middle" x="284.24" y="-193.08" font-family="Times,serif" font-size="13.00"> no PRE_START</text>
</g>
<!-- WAIT_PRE_START&#45;&gt;WAIT_ENABLE -->
<g id="edge7" class="edge">
<title>WAIT_PRE_START&#45;&gt;WAIT_ENABLE</title>
<path fill="none" stroke="black" d="M72.23,-170.26C37.31,-201.19 -11.65,-256.19 12.24,-305.48 35.33,-353.14 89.4,-379.23 136.61,-393.34"/>
<polygon fill="black" stroke="black" points="135.69,-396.72 146.26,-396.09 137.6,-389.99 135.69,-396.72"/>
<text text-anchor="middle" x="45.74" y="-274.08" font-family="Times,serif" font-size="13.00"> Disabled </text>
</g>
<!-- WAIT_RISING -->
<g id="node4" class="node">
<title>WAIT_RISING</title>
<ellipse fill="none" stroke="black" cx="381.24" cy="-26.87" rx="81.13" ry="26.74"/>
<text text-anchor="middle" x="381.24" y="-30.67" font-family="Times,serif" font-size="14.00">State 3</text>
<text text-anchor="middle" x="381.24" y="-15.67" font-family="Times,serif" font-size="14.00">WAIT_RISING</text>
</g>
<!-- WAIT_PRE_START&#45;&gt;WAIT_RISING -->
<g id="edge8" class="edge">
<title>WAIT_PRE_START&#45;&gt;WAIT_RISING</title>
<path fill="none" stroke="black" d="M130.26,-118.64C148.5,-103.03 173.8,-83.7 199.24,-71.74 229.89,-57.32 265.75,-47.38 297.5,-40.65"/>
<polygon fill="black" stroke="black" points="298.55,-44 307.65,-38.57 297.15,-37.14 298.55,-44"/>
<text text-anchor="middle" x="260.24" y="-82.34" font-family="Times,serif" font-size="13.00"> &lt; PRE_START &gt; </text>
</g>
<!-- WAIT_RISING&#45;&gt;WAIT_ENABLE -->
<g id="edge9" class="edge">
<title>WAIT_RISING&#45;&gt;WAIT_ENABLE</title>
<path fill="none" stroke="black" d="M443.2,-44.36C459.02,-50.87 475,-59.76 487.24,-71.74 537.39,-120.84 612.6,-233.66 565.24,-305.48 536.62,-348.87 399.76,-379.7 307.26,-395.99"/>
<polygon fill="black" stroke="black" points="306.58,-392.56 297.33,-397.71 307.78,-399.45 306.58,-392.56"/>
<text text-anchor="middle" x="631.74" y="-221.08" font-family="Times,serif" font-size="13.00">jump &gt;</text>
<text text-anchor="middle" x="631.74" y="-207.08" font-family="Times,serif" font-size="13.00">WIDTH + STEP</text>
<text text-anchor="middle" x="631.74" y="-193.08" font-family="Times,serif" font-size="13.00"> or Disabled </text>
</g>
<!-- WAIT_RISING&#45;&gt;WAIT_FALLING -->
<g id="edge10" class="edge">
<title>WAIT_RISING&#45;&gt;WAIT_FALLING</title>
<path fill="none" stroke="black" d="M400.74,-52.97C409.16,-66.99 415.59,-84.64 408.24,-99.74 405.84,-104.67 402.59,-109.2 398.85,-113.34"/>
<polygon fill="black" stroke="black" points="396.39,-110.85 391.69,-120.34 401.29,-115.86 396.39,-110.85"/>
<text text-anchor="middle" x="447.24" y="-82.34" font-family="Times,serif" font-size="13.00"> &gt;= pulse </text>
</g>
<!-- WAIT_FALLING&#45;&gt;WAIT_ENABLE -->
<g id="edge11" class="edge">
<title>WAIT_FALLING&#45;&gt;WAIT_ENABLE</title>
<path fill="none" stroke="black" d="M384.31,-169.85C421.16,-200.82 473.39,-256.31 447.24,-305.48 420.09,-356.53 359.59,-382.58 307.88,-395.82"/>
<polygon fill="black" stroke="black" points="306.89,-392.46 298,-398.23 308.54,-399.26 306.89,-392.46"/>
<text text-anchor="middle" x="507.74" y="-295.08" font-family="Times,serif" font-size="13.00"> jump &gt; </text>
<text text-anchor="middle" x="507.74" y="-281.08" font-family="Times,serif" font-size="13.00">WIDTH + STEP</text>
<text text-anchor="middle" x="507.74" y="-267.08" font-family="Times,serif" font-size="13.00"> or Finished </text>
<text text-anchor="middle" x="507.74" y="-253.08" font-family="Times,serif" font-size="13.00">or Disabled</text>
</g>
<!-- WAIT_FALLING&#45;&gt;WAIT_RISING -->
<g id="edge12" class="edge">
<title>WAIT_FALLING&#45;&gt;WAIT_RISING</title>
<path fill="none" stroke="black" d="M334.91,-118.08C327.66,-104.07 322.34,-86.59 329.24,-71.74 331.45,-66.98 334.47,-62.54 337.94,-58.47"/>
<polygon fill="black" stroke="black" points="340.64,-60.71 345.08,-51.09 335.61,-55.84 340.64,-60.71"/>
<text text-anchor="middle" x="366.74" y="-89.34" font-family="Times,serif" font-size="13.00"> &gt;= pulse </text>
<text text-anchor="middle" x="366.74" y="-75.34" font-family="Times,serif" font-size="13.00"> + WIDTH </text>
</g>
</g>
</svg>
