<?xml version="1.0" encoding="UTF-8" standalone="no"?>
<!DOCTYPE svg PUBLIC "-//W3C//DTD SVG 1.1//EN"
 "http://www.w3.org/Graphics/SVG/1.1/DTD/svg11.dtd">
<!-- Generated by graphviz version 2.43.0 (0)
 -->
<!-- Title: pcomp_sm Pages: 1 -->
<svg width="1263pt" height="481pt"
 viewBox="0.00 0.00 1263.00 480.70" xmlns="http://www.w3.org/2000/svg" xmlns:xlink="http://www.w3.org/1999/xlink">
<g id="graph0" class="graph" transform="scale(1 1) rotate(0) translate(4 476.7)">
<title>pcomp_sm</title>
<polygon fill="white" stroke="transparent" points="-4,4 -4,-476.7 1259,-476.7 1259,4 -4,4"/>
<!-- WAIT_ENABLE -->
<g id="node1" class="node">
<title>WAIT_ENABLE</title>
<ellipse fill="none" stroke="black" cx="234" cy="-445.83" rx="86.95" ry="26.74"/>
<text text-anchor="middle" x="234" y="-449.63" font-family="Times,serif" font-size="14.00">State 0</text>
<text text-anchor="middle" x="234" y="-434.63" font-family="Times,serif" font-size="14.00">WAIT_ENABLE</text>
</g>
<!-- UNREADY -->
<g id="node2" class="node">
<title>UNREADY</title>
<ellipse fill="none" stroke="black" cx="399" cy="-26.87" rx="65.11" ry="26.74"/>
<text text-anchor="middle" x="399" y="-30.67" font-family="Times,serif" font-size="14.00">State 1</text>
<text text-anchor="middle" x="399" y="-15.67" font-family="Times,serif" font-size="14.00">UNREADY</text>
</g>
<!-- WAIT_ENABLE&#45;&gt;UNREADY -->
<g id="edge1" class="edge">
<title>WAIT_ENABLE&#45;&gt;UNREADY</title>
<path fill="none" stroke="black" d="M148.2,-440.97C81.41,-432.79 0,-409.09 0,-342.09 0,-342.09 0,-342.09 0,-130.61 0,-64.39 208.73,-40.21 324.25,-31.9"/>
<polygon fill="black" stroke="black" points="324.72,-35.38 334.45,-31.2 324.23,-28.4 324.72,-35.38"/>
<text text-anchor="middle" x="74" y="-232.65" font-family="Times,serif" font-size="14.00"> TABLE load started </text>
</g>
<!-- WAIT_TRIGGER -->
<g id="node3" class="node">
<title>WAIT_TRIGGER</title>
<ellipse fill="none" stroke="black" cx="936" cy="-341.09" rx="91.43" ry="26.74"/>
<text text-anchor="middle" x="936" y="-344.89" font-family="Times,serif" font-size="14.00">State 2</text>
<text text-anchor="middle" x="936" y="-329.89" font-family="Times,serif" font-size="14.00">WAIT_TRIGGER</text>
</g>
<!-- WAIT_ENABLE&#45;&gt;WAIT_TRIGGER -->
<g id="edge2" class="edge">
<title>WAIT_ENABLE&#45;&gt;WAIT_TRIGGER</title>
<path fill="none" stroke="black" d="M317.12,-437.6C432.97,-426.74 649.23,-403.6 831,-367.96 840.23,-366.15 849.87,-364.06 859.4,-361.86"/>
<polygon fill="black" stroke="black" points="860.34,-365.24 869.28,-359.55 858.74,-358.42 860.34,-365.24"/>
<text text-anchor="middle" x="848.5" y="-389.76" font-family="Times,serif" font-size="14.00"> rising ENABLE and trigger not met </text>
</g>
<!-- PHASE1 -->
<g id="node4" class="node">
<title>PHASE1</title>
<ellipse fill="none" stroke="black" cx="592" cy="-236.35" rx="54.39" ry="26.74"/>
<text text-anchor="middle" x="592" y="-240.15" font-family="Times,serif" font-size="14.00">State 3</text>
<text text-anchor="middle" x="592" y="-225.15" font-family="Times,serif" font-size="14.00">PHASE1</text>
</g>
<!-- WAIT_ENABLE&#45;&gt;PHASE1 -->
<g id="edge3" class="edge">
<title>WAIT_ENABLE&#45;&gt;PHASE1</title>
<path fill="none" stroke="black" d="M309.86,-432.48C388.64,-415.6 509.72,-377.57 578,-296.22 583.43,-289.76 586.82,-281.55 588.93,-273.34"/>
<polygon fill="black" stroke="black" points="592.39,-273.92 590.92,-263.42 585.52,-272.54 592.39,-273.92"/>
<text text-anchor="middle" x="677.5" y="-337.39" font-family="Times,serif" font-size="14.00"> rising ENABLE and trigger met </text>
</g>
<!-- PHASE2 -->
<g id="node5" class="node">
<title>PHASE2</title>
<ellipse fill="none" stroke="black" cx="619" cy="-131.61" rx="54.39" ry="26.74"/>
<text text-anchor="middle" x="619" y="-135.41" font-family="Times,serif" font-size="14.00">State 4</text>
<text text-anchor="middle" x="619" y="-120.41" font-family="Times,serif" font-size="14.00">PHASE2</text>
</g>
<!-- WAIT_ENABLE&#45;&gt;PHASE2 -->
<g id="edge4" class="edge">
<title>WAIT_ENABLE&#45;&gt;PHASE2</title>
<path fill="none" stroke="black" d="M224.05,-418.9C212.28,-383.32 198.12,-319.45 231,-281.22 248.44,-260.94 325.39,-273.69 350,-263.22 408.26,-238.43 405.17,-202.24 463,-176.48 503.05,-158.64 518.09,-171.37 560,-158.48 563.74,-157.33 567.56,-156.01 571.37,-154.59"/>
<polygon fill="black" stroke="black" points="572.74,-157.81 580.76,-150.89 570.18,-151.3 572.74,-157.81"/>
<text text-anchor="middle" x="402.5" y="-285.02" font-family="Times,serif" font-size="14.00"> rising ENABLE and trigger met and no phase1 </text>
</g>
<!-- UNREADY&#45;&gt;WAIT_ENABLE -->
<g id="edge5" class="edge">
<title>UNREADY&#45;&gt;WAIT_ENABLE</title>
<path fill="none" stroke="black" d="M335.08,-31.93C271.7,-39.82 184,-62.97 184,-130.61 184,-342.09 184,-342.09 184,-342.09 184,-366.86 195.9,-391.91 208.08,-411.08"/>
<polygon fill="black" stroke="black" points="205.2,-413.07 213.66,-419.44 211.03,-409.18 205.2,-413.07"/>
<text text-anchor="middle" x="265" y="-232.65" font-family="Times,serif" font-size="14.00"> TABLE load complete </text>
</g>
<!-- WAIT_TRIGGER&#45;&gt;UNREADY -->
<g id="edge6" class="edge">
<title>WAIT_TRIGGER&#45;&gt;UNREADY</title>
<path fill="none" stroke="black" d="M1015.27,-327.61C1053.43,-317.18 1095.83,-298.09 1119,-263.22 1132.22,-243.33 1130.98,-230.14 1119,-209.48 1071.99,-128.41 1024.63,-135.2 936,-104.74 777.61,-50.31 580.15,-34.41 474.33,-29.77"/>
<polygon fill="black" stroke="black" points="474.2,-26.26 464.07,-29.34 473.91,-33.26 474.2,-26.26"/>
<text text-anchor="middle" x="1181" y="-180.28" font-family="Times,serif" font-size="14.00"> TABLE load started </text>
</g>
<!-- WAIT_TRIGGER&#45;&gt;PHASE1 -->
<g id="edge7" class="edge">
<title>WAIT_TRIGGER&#45;&gt;PHASE1</title>
<path fill="none" stroke="black" d="M870.51,-322.31C857.49,-319.24 843.87,-316.36 831,-314.22 785.89,-306.73 664.57,-320.79 626,-296.22 617.04,-290.51 610.18,-281.54 605.05,-272.31"/>
<polygon fill="black" stroke="black" points="608.06,-270.5 600.48,-263.1 601.79,-273.61 608.06,-270.5"/>
<text text-anchor="middle" x="672" y="-285.02" font-family="Times,serif" font-size="14.00"> trigger met </text>
</g>
<!-- WAIT_TRIGGER&#45;&gt;PHASE2 -->
<g id="edge8" class="edge">
<title>WAIT_TRIGGER&#45;&gt;PHASE2</title>
<path fill="none" stroke="black" d="M873.63,-321.2C825.46,-305.49 764.06,-282.63 746,-263.22 718.41,-233.56 745.1,-206.59 718,-176.48 706.85,-164.1 691.56,-155.03 676.33,-148.47"/>
<polygon fill="black" stroke="black" points="677.48,-145.16 666.89,-144.7 674.88,-151.66 677.48,-145.16"/>
<text text-anchor="middle" x="846" y="-232.65" font-family="Times,serif" font-size="14.00"> trigger met and no phase1 </text>
</g>
<!-- PHASE1&#45;&gt;UNREADY -->
<g id="edge9" class="edge">
<title>PHASE1&#45;&gt;UNREADY</title>
<path fill="none" stroke="black" d="M539.18,-229.82C495.2,-222.04 435.49,-203.35 408,-158.48 390.68,-130.21 390.18,-91.75 392.95,-63.89"/>
<polygon fill="black" stroke="black" points="396.45,-64.12 394.14,-53.78 389.49,-63.3 396.45,-64.12"/>
<text text-anchor="middle" x="482" y="-127.91" font-family="Times,serif" font-size="14.00"> TABLE load started </text>
</g>
<!-- PHASE1&#45;&gt;PHASE2 -->
<g id="edge10" class="edge">
<title>PHASE1&#45;&gt;PHASE2</title>
<path fill="none" stroke="black" d="M598.81,-209.42C602.07,-197.01 606.03,-181.95 609.58,-168.46"/>
<polygon fill="black" stroke="black" points="613.03,-169.09 612.19,-158.53 606.26,-167.31 613.03,-169.09"/>
<text text-anchor="middle" x="663" y="-180.28" font-family="Times,serif" font-size="14.00"> time1 elapsed </text>
</g>
<!-- PHASE2&#45;&gt;UNREADY -->
<g id="edge11" class="edge">
<title>PHASE2&#45;&gt;UNREADY</title>
<path fill="none" stroke="black" d="M580.43,-112.6C544.26,-95.71 489.95,-70.34 450.17,-51.77"/>
<polygon fill="black" stroke="black" points="451.45,-48.5 440.9,-47.44 448.48,-54.84 451.45,-48.5"/>
<text text-anchor="middle" x="597" y="-75.54" font-family="Times,serif" font-size="14.00"> TABLE load started </text>
</g>
<!-- PHASE2&#45;&gt;WAIT_TRIGGER -->
<g id="edge12" class="edge">
<title>PHASE2&#45;&gt;WAIT_TRIGGER</title>
<path fill="none" stroke="black" d="M672.44,-137.28C756.23,-145.82 912.46,-167.14 946,-209.48 967.03,-236.03 960.21,-275.9 950.82,-304.6"/>
<polygon fill="black" stroke="black" points="947.44,-303.65 947.43,-314.24 954.05,-305.97 947.44,-303.65"/>
<text text-anchor="middle" x="1037" y="-232.65" font-family="Times,serif" font-size="14.00"> next trigger not met </text>
</g>
<!-- PHASE2&#45;&gt;PHASE1 -->
<g id="edge13" class="edge">
<title>PHASE2&#45;&gt;PHASE1</title>
<path fill="none" stroke="black" d="M577.96,-149.28C569.15,-152.56 559.83,-155.81 551,-158.48 516.53,-168.91 494.46,-148.33 472,-176.48 451.39,-202.32 490.86,-217.63 529.93,-226.13"/>
<polygon fill="black" stroke="black" points="529.32,-229.57 539.82,-228.14 530.72,-222.72 529.32,-229.57"/>
<text text-anchor="middle" x="536" y="-180.28" font-family="Times,serif" font-size="14.00"> next trigger met </text>
</g>
<!-- PHASE2&#45;&gt;PHASE2 -->
<g id="edge14" class="edge">
<title>PHASE2&#45;&gt;PHASE2</title>
<path fill="none" stroke="black" d="M670.11,-141.19C682.37,-140.44 691.45,-137.25 691.45,-131.61 691.45,-127.65 686.96,-124.89 680.03,-123.35"/>
<polygon fill="black" stroke="black" points="680.49,-119.87 670.11,-122.03 679.57,-126.81 680.49,-119.87"/>
<text text-anchor="middle" x="809.45" y="-127.91" font-family="Times,serif" font-size="14.00"> next trigger met and no phase1 </text>
</g>
</g>
</svg>
